<svg xmlns="http://www.w3.org/2000/svg" xmlns:xlink="http://www.w3.org/1999/xlink" width="3333" zoomAndPan="magnify" viewBox="0 0 2499.75 562.499983" height="750" preserveAspectRatio="xMidYMid meet" version="1.0"><defs><g/><clipPath id="e778db293a"><rect x="0" width="2340" y="0" height="422"/></clipPath></defs><g transform="matrix(1, 0, 0, 1, 80, 64)"><g clip-path="url(#e778db293a)"><g fill="#ffffff" fill-opacity="1"><g transform="translate(18.692154, 334.48104)"><g><path d="M 137.011719 11.777344 L 90.890625 -98.132812 L 118.960938 -109.910156 L 118.960938 -79.46875 L 88.359375 -79.46875 L 88.359375 -109.910156 L 118.800781 -109.910156 L 118.800781 30.441406 L -15.355469 30.441406 L -15.355469 -332.15625 L 134.046875 -332.15625 C 153.152344 -332.15625 170.640625 -327.417969 186.511719 -317.9375 C 202.054688 -308.652344 214.378906 -296.222656 223.476562 -280.65625 C 232.714844 -264.847656 237.332031 -247.445312 237.332031 -228.441406 L 237.332031 -182.753906 C 237.332031 -168.164062 234.46875 -154.328125 228.746094 -141.242188 C 223.011719 -128.136719 214.984375 -116.835938 204.65625 -107.335938 L 184.046875 -129.738281 L 212.027344 -141.730469 L 285.816406 30.441406 L 144.84375 30.441406 Z M 193.152344 -11.777344 L 165.082031 0 L 165.082031 -30.441406 L 239.648438 -30.441406 L 239.648438 0 L 211.667969 11.992188 L 147.578125 -137.550781 L 163.4375 -152.140625 C 167.480469 -155.859375 170.65625 -160.363281 172.96875 -165.644531 C 175.289062 -170.953125 176.449219 -176.65625 176.449219 -182.753906 L 176.449219 -228.441406 C 176.449219 -236.453125 174.605469 -243.617188 170.910156 -249.9375 C 167.078125 -256.492188 161.871094 -261.738281 155.289062 -265.671875 C 149.035156 -269.40625 141.953125 -271.277344 134.046875 -271.277344 L 15.085938 -271.277344 L 15.085938 -301.71875 L 45.527344 -301.71875 L 45.527344 0 L 15.085938 0 L 15.085938 -30.441406 L 88.359375 -30.441406 L 88.359375 0 L 57.917969 0 L 57.917969 -140.351562 L 139.203125 -140.351562 Z M 118.800781 -228.441406 L 118.800781 -182.753906 L 88.359375 -182.753906 L 88.359375 -213.195312 L 134.046875 -213.195312 L 134.046875 -182.753906 L 103.605469 -182.753906 L 103.605469 -228.441406 L 134.046875 -228.441406 L 134.046875 -198 L 88.359375 -198 L 88.359375 -228.441406 Z M 57.917969 -258.882812 L 164.488281 -258.882812 L 164.488281 -152.3125 L 57.917969 -152.3125 Z M 57.917969 -258.882812 "/></g></g></g><g fill="#ffffff" fill-opacity="1"><g transform="translate(248.427547, 334.48104)"><g><path d="M 148.703125 -332.15625 C 167.808594 -332.15625 185.296875 -327.417969 201.167969 -317.9375 C 216.621094 -308.703125 228.964844 -296.359375 238.195312 -280.90625 C 247.679688 -265.035156 252.417969 -247.546875 252.417969 -228.441406 L 252.417969 -73.273438 C 252.417969 -54.167969 247.679688 -36.679688 238.195312 -20.808594 C 228.964844 -5.355469 216.621094 6.988281 201.167969 16.21875 C 185.296875 25.699219 167.808594 30.441406 148.703125 30.441406 L 84.910156 30.441406 C 65.804688 30.441406 48.316406 25.699219 32.445312 16.21875 C 16.992188 6.988281 4.648438 -5.355469 -4.582031 -20.808594 C -14.0625 -36.679688 -18.804688 -54.167969 -18.804688 -73.273438 L -18.804688 -228.441406 C -18.804688 -247.546875 -14.0625 -265.035156 -4.582031 -280.90625 C 4.648438 -296.359375 16.992188 -308.703125 32.445312 -317.9375 C 48.316406 -327.417969 65.804688 -332.15625 84.910156 -332.15625 Z M 148.703125 -271.277344 L 84.910156 -271.277344 C 77.007812 -271.277344 69.925781 -269.40625 63.671875 -265.671875 C 57 -261.683594 51.671875 -256.355469 47.683594 -249.683594 C 43.949219 -243.429688 42.078125 -236.347656 42.078125 -228.441406 L 42.078125 -73.273438 C 42.078125 -65.367188 43.949219 -58.289062 47.683594 -52.035156 C 51.671875 -45.363281 57 -40.03125 63.671875 -36.046875 C 69.925781 -32.308594 77.007812 -30.441406 84.910156 -30.441406 L 148.703125 -30.441406 C 156.609375 -30.441406 163.6875 -32.308594 169.945312 -36.046875 C 176.617188 -40.03125 181.945312 -45.363281 185.929688 -52.035156 C 189.667969 -58.289062 191.535156 -65.367188 191.535156 -73.273438 L 191.535156 -228.441406 C 191.535156 -236.347656 189.667969 -243.429688 185.929688 -249.683594 C 181.945312 -256.355469 176.617188 -261.683594 169.945312 -265.671875 C 163.6875 -269.40625 156.609375 -271.277344 148.703125 -271.277344 Z M 84.910156 -103.714844 L 148.703125 -103.714844 L 148.703125 -73.273438 L 118.261719 -73.273438 L 118.261719 -228.441406 L 148.703125 -228.441406 L 148.703125 -198 L 84.910156 -198 L 84.910156 -228.441406 L 115.351562 -228.441406 L 115.351562 -73.273438 L 84.910156 -73.273438 Z M 54.46875 -42.832031 L 54.46875 -258.882812 L 179.144531 -258.882812 L 179.144531 -42.832031 Z M 54.46875 -42.832031 "/></g></g></g><g fill="#ffffff" fill-opacity="1"><g transform="translate(482.042262, 334.48104)"><g><path d="M 221.457031 -186.589844 C 232.121094 -177.15625 240.503906 -165.832031 246.601562 -152.625 C 252.777344 -139.238281 255.867188 -125 255.867188 -109.910156 L 255.867188 -73.273438 C 255.867188 -54.167969 251.125 -36.679688 241.644531 -20.808594 C 232.414062 -5.355469 220.070312 6.988281 204.617188 16.21875 C 188.746094 25.699219 171.257812 30.441406 152.152344 30.441406 L -15.355469 30.441406 L -15.355469 -332.15625 L 134.046875 -332.15625 C 153.152344 -332.15625 170.640625 -327.417969 186.511719 -317.9375 C 202.054688 -308.652344 214.378906 -296.222656 223.476562 -280.65625 C 232.714844 -264.847656 237.332031 -247.445312 237.332031 -228.441406 L 237.332031 -191.804688 C 237.332031 -177.953125 234.675781 -164.691406 229.359375 -152.015625 L 201.289062 -163.789062 Z M 181.117188 -140.988281 L 164.777344 -155.441406 L 173.214844 -175.5625 C 175.371094 -180.703125 176.449219 -186.117188 176.449219 -191.804688 L 176.449219 -228.441406 C 176.449219 -236.453125 174.605469 -243.617188 170.910156 -249.9375 C 167.078125 -256.492188 161.871094 -261.738281 155.289062 -265.671875 C 149.035156 -269.40625 141.953125 -271.277344 134.046875 -271.277344 L 15.085938 -271.277344 L 15.085938 -301.71875 L 45.527344 -301.71875 L 45.527344 0 L 15.085938 0 L 15.085938 -30.441406 L 152.152344 -30.441406 C 160.058594 -30.441406 167.136719 -32.308594 173.390625 -36.046875 C 180.0625 -40.03125 185.394531 -45.363281 189.378906 -52.035156 C 193.117188 -58.289062 194.984375 -65.367188 194.984375 -73.273438 L 194.984375 -109.910156 C 194.984375 -116.085938 193.761719 -121.820312 191.320312 -127.109375 C 188.796875 -132.578125 185.398438 -137.203125 181.117188 -140.988281 Z M 118.800781 -228.441406 L 118.800781 -182.753906 L 88.359375 -182.753906 L 88.359375 -213.195312 L 134.046875 -213.195312 L 134.046875 -182.753906 L 103.605469 -182.753906 L 103.605469 -228.441406 L 134.046875 -228.441406 L 134.046875 -198 L 88.359375 -198 L 88.359375 -228.441406 Z M 57.917969 -258.882812 L 164.488281 -258.882812 L 164.488281 -152.3125 L 57.917969 -152.3125 Z M 88.359375 -103.714844 L 152.152344 -103.714844 L 152.152344 -73.273438 L 121.710938 -73.273438 L 121.710938 -109.910156 L 152.152344 -109.910156 L 152.152344 -79.46875 L 88.359375 -79.46875 L 88.359375 -109.910156 L 118.800781 -109.910156 L 118.800781 -73.273438 L 88.359375 -73.273438 Z M 57.917969 -42.832031 L 57.917969 -140.351562 L 182.59375 -140.351562 L 182.59375 -42.832031 Z M 57.917969 -42.832031 "/></g></g></g><g fill="#ffffff" fill-opacity="1"><g transform="translate(713.932859, 334.48104)"><g><path d="M 148.703125 -332.15625 C 167.808594 -332.15625 185.296875 -327.417969 201.167969 -317.9375 C 216.621094 -308.703125 228.964844 -296.359375 238.195312 -280.90625 C 247.679688 -265.035156 252.417969 -247.546875 252.417969 -228.441406 L 252.417969 -73.273438 C 252.417969 -54.167969 247.679688 -36.679688 238.195312 -20.808594 C 228.964844 -5.355469 216.621094 6.988281 201.167969 16.21875 C 185.296875 25.699219 167.808594 30.441406 148.703125 30.441406 L 84.910156 30.441406 C 65.804688 30.441406 48.316406 25.699219 32.445312 16.21875 C 16.992188 6.988281 4.648438 -5.355469 -4.582031 -20.808594 C -14.0625 -36.679688 -18.804688 -54.167969 -18.804688 -73.273438 L -18.804688 -228.441406 C -18.804688 -247.546875 -14.0625 -265.035156 -4.582031 -280.90625 C 4.648438 -296.359375 16.992188 -308.703125 32.445312 -317.9375 C 48.316406 -327.417969 65.804688 -332.15625 84.910156 -332.15625 Z M 148.703125 -271.277344 L 84.910156 -271.277344 C 77.007812 -271.277344 69.925781 -269.40625 63.671875 -265.671875 C 57 -261.683594 51.671875 -256.355469 47.683594 -249.683594 C 43.949219 -243.429688 42.078125 -236.347656 42.078125 -228.441406 L 42.078125 -73.273438 C 42.078125 -65.367188 43.949219 -58.289062 47.683594 -52.035156 C 51.671875 -45.363281 57 -40.03125 63.671875 -36.046875 C 69.925781 -32.308594 77.007812 -30.441406 84.910156 -30.441406 L 148.703125 -30.441406 C 156.609375 -30.441406 163.6875 -32.308594 169.945312 -36.046875 C 176.617188 -40.03125 181.945312 -45.363281 185.929688 -52.035156 C 189.667969 -58.289062 191.535156 -65.367188 191.535156 -73.273438 L 191.535156 -228.441406 C 191.535156 -236.347656 189.667969 -243.429688 185.929688 -249.683594 C 181.945312 -256.355469 176.617188 -261.683594 169.945312 -265.671875 C 163.6875 -269.40625 156.609375 -271.277344 148.703125 -271.277344 Z M 84.910156 -103.714844 L 148.703125 -103.714844 L 148.703125 -73.273438 L 118.261719 -73.273438 L 118.261719 -228.441406 L 148.703125 -228.441406 L 148.703125 -198 L 84.910156 -198 L 84.910156 -228.441406 L 115.351562 -228.441406 L 115.351562 -73.273438 L 84.910156 -73.273438 Z M 54.46875 -42.832031 L 54.46875 -258.882812 L 179.144531 -258.882812 L 179.144531 -42.832031 Z M 54.46875 -42.832031 "/></g></g></g><g fill="#ffffff" fill-opacity="1"><g transform="translate(947.547553, 334.48104)"><g><path d="M 193.097656 -198 L 84.910156 -198 L 84.910156 -228.441406 L 115.351562 -228.441406 L 115.351562 -73.273438 L 84.910156 -73.273438 L 84.910156 -103.714844 L 223.539062 -103.714844 L 223.539062 30.441406 L 84.910156 30.441406 C 65.804688 30.441406 48.316406 25.699219 32.445312 16.21875 C 16.992188 6.988281 4.648438 -5.355469 -4.582031 -20.808594 C -14.0625 -36.679688 -18.804688 -54.167969 -18.804688 -73.273438 L -18.804688 -228.441406 C -18.804688 -247.546875 -14.0625 -265.035156 -4.582031 -280.90625 C 4.648438 -296.359375 16.992188 -308.703125 32.445312 -317.9375 C 48.316406 -327.417969 65.804688 -332.15625 84.910156 -332.15625 L 223.539062 -332.15625 L 223.539062 -198 Z M 193.097656 -258.882812 L 193.097656 -228.441406 L 162.65625 -228.441406 L 162.65625 -301.71875 L 193.097656 -301.71875 L 193.097656 -271.277344 L 84.910156 -271.277344 C 77.007812 -271.277344 69.925781 -269.40625 63.671875 -265.671875 C 57 -261.683594 51.671875 -256.355469 47.683594 -249.683594 C 43.949219 -243.429688 42.078125 -236.347656 42.078125 -228.441406 L 42.078125 -73.273438 C 42.078125 -65.367188 43.949219 -58.289062 47.683594 -52.035156 C 51.671875 -45.363281 57 -40.03125 63.671875 -36.046875 C 69.925781 -32.308594 77.007812 -30.441406 84.910156 -30.441406 L 193.097656 -30.441406 L 193.097656 0 L 162.65625 0 L 162.65625 -73.273438 L 193.097656 -73.273438 L 193.097656 -42.832031 L 54.46875 -42.832031 L 54.46875 -258.882812 Z M 193.097656 -258.882812 "/></g></g></g><g fill="#ffffff" fill-opacity="1"><g transform="translate(1146.680346, 334.48104)"><g><path d="M 148.703125 -332.15625 C 167.808594 -332.15625 185.296875 -327.417969 201.167969 -317.9375 C 216.621094 -308.703125 228.964844 -296.359375 238.195312 -280.90625 C 247.679688 -265.035156 252.417969 -247.546875 252.417969 -228.441406 L 252.417969 -73.273438 C 252.417969 -54.167969 247.679688 -36.679688 238.195312 -20.808594 C 228.964844 -5.355469 216.621094 6.988281 201.167969 16.21875 C 185.296875 25.699219 167.808594 30.441406 148.703125 30.441406 L 84.910156 30.441406 C 65.804688 30.441406 48.316406 25.699219 32.445312 16.21875 C 16.992188 6.988281 4.648438 -5.355469 -4.582031 -20.808594 C -14.0625 -36.679688 -18.804688 -54.167969 -18.804688 -73.273438 L -18.804688 -228.441406 C -18.804688 -247.546875 -14.0625 -265.035156 -4.582031 -280.90625 C 4.648438 -296.359375 16.992188 -308.703125 32.445312 -317.9375 C 48.316406 -327.417969 65.804688 -332.15625 84.910156 -332.15625 Z M 148.703125 -271.277344 L 84.910156 -271.277344 C 77.007812 -271.277344 69.925781 -269.40625 63.671875 -265.671875 C 57 -261.683594 51.671875 -256.355469 47.683594 -249.683594 C 43.949219 -243.429688 42.078125 -236.347656 42.078125 -228.441406 L 42.078125 -73.273438 C 42.078125 -65.367188 43.949219 -58.289062 47.683594 -52.035156 C 51.671875 -45.363281 57 -40.03125 63.671875 -36.046875 C 69.925781 -32.308594 77.007812 -30.441406 84.910156 -30.441406 L 148.703125 -30.441406 C 156.609375 -30.441406 163.6875 -32.308594 169.945312 -36.046875 C 176.617188 -40.03125 181.945312 -45.363281 185.929688 -52.035156 C 189.667969 -58.289062 191.535156 -65.367188 191.535156 -73.273438 L 191.535156 -228.441406 C 191.535156 -236.347656 189.667969 -243.429688 185.929688 -249.683594 C 181.945312 -256.355469 176.617188 -261.683594 169.945312 -265.671875 C 163.6875 -269.40625 156.609375 -271.277344 148.703125 -271.277344 Z M 84.910156 -103.714844 L 148.703125 -103.714844 L 148.703125 -73.273438 L 118.261719 -73.273438 L 118.261719 -228.441406 L 148.703125 -228.441406 L 148.703125 -198 L 84.910156 -198 L 84.910156 -228.441406 L 115.351562 -228.441406 L 115.351562 -73.273438 L 84.910156 -73.273438 Z M 54.46875 -42.832031 L 54.46875 -258.882812 L 179.144531 -258.882812 L 179.144531 -42.832031 Z M 54.46875 -42.832031 "/></g></g></g><g fill="#ffffff" fill-opacity="1"><g transform="translate(1380.295082, 334.48104)"><g><path d="M 152.152344 -332.15625 C 171.257812 -332.15625 188.746094 -327.417969 204.617188 -317.9375 C 220.070312 -308.703125 232.414062 -296.359375 241.644531 -280.90625 C 251.125 -265.035156 255.867188 -247.546875 255.867188 -228.441406 L 255.867188 -73.273438 C 255.867188 -54.167969 251.125 -36.679688 241.644531 -20.808594 C 232.414062 -5.355469 220.070312 6.988281 204.617188 16.21875 C 188.746094 25.699219 171.257812 30.441406 152.152344 30.441406 L -15.355469 30.441406 L -15.355469 -332.15625 Z M 152.152344 -271.277344 L 15.085938 -271.277344 L 15.085938 -301.71875 L 45.527344 -301.71875 L 45.527344 0 L 15.085938 0 L 15.085938 -30.441406 L 152.152344 -30.441406 C 160.058594 -30.441406 167.136719 -32.308594 173.390625 -36.046875 C 180.0625 -40.03125 185.394531 -45.363281 189.378906 -52.035156 C 193.117188 -58.289062 194.984375 -65.367188 194.984375 -73.273438 L 194.984375 -228.441406 C 194.984375 -236.347656 193.117188 -243.429688 189.378906 -249.683594 C 185.394531 -256.355469 180.0625 -261.683594 173.390625 -265.671875 C 167.136719 -269.40625 160.058594 -271.277344 152.152344 -271.277344 Z M 88.359375 -103.714844 L 152.152344 -103.714844 L 152.152344 -73.273438 L 121.710938 -73.273438 L 121.710938 -228.441406 L 152.152344 -228.441406 L 152.152344 -198 L 88.359375 -198 L 88.359375 -228.441406 L 118.800781 -228.441406 L 118.800781 -73.273438 L 88.359375 -73.273438 Z M 57.917969 -42.832031 L 57.917969 -258.882812 L 182.59375 -258.882812 L 182.59375 -42.832031 Z M 57.917969 -42.832031 "/></g></g></g><g fill="#ffffff" fill-opacity="1"><g transform="translate(1617.357842, 334.48104)"><g><path d="M 181.03125 -198 L 88.359375 -198 L 88.359375 -228.441406 L 118.800781 -228.441406 L 118.800781 -182.753906 L 88.359375 -182.753906 L 88.359375 -213.195312 L 191.644531 -213.195312 L 191.644531 -79.46875 L 88.359375 -79.46875 L 88.359375 -109.910156 L 118.800781 -109.910156 L 118.800781 -73.273438 L 88.359375 -73.273438 L 88.359375 -103.714844 L 255.867188 -103.714844 L 255.867188 30.441406 L -15.355469 30.441406 L -15.355469 -332.15625 L 255.867188 -332.15625 L 255.867188 -272.839844 C 255.867188 -252.460938 248.644531 -234.929688 234.195312 -220.242188 C 219.613281 -205.414062 201.890625 -198 181.03125 -198 Z M 181.03125 -258.882812 C 184.882812 -258.882812 188.136719 -260.234375 190.792969 -262.9375 C 193.585938 -265.777344 194.984375 -269.078125 194.984375 -272.839844 L 194.984375 -301.71875 L 225.425781 -301.71875 L 225.425781 -271.277344 L 15.085938 -271.277344 L 15.085938 -301.71875 L 45.527344 -301.71875 L 45.527344 0 L 15.085938 0 L 15.085938 -30.441406 L 225.425781 -30.441406 L 225.425781 0 L 194.984375 0 L 194.984375 -73.273438 L 225.425781 -73.273438 L 225.425781 -42.832031 L 57.917969 -42.832031 L 57.917969 -140.351562 L 161.203125 -140.351562 L 161.203125 -109.910156 L 130.761719 -109.910156 L 130.761719 -182.753906 L 161.203125 -182.753906 L 161.203125 -152.3125 L 57.917969 -152.3125 L 57.917969 -258.882812 Z M 181.03125 -258.882812 "/></g></g></g><g fill="#ffffff" fill-opacity="1"><g transform="translate(1847.524385, 334.48104)"><g><path d="M 137.011719 11.777344 L 90.890625 -98.132812 L 118.960938 -109.910156 L 118.960938 -79.46875 L 88.359375 -79.46875 L 88.359375 -109.910156 L 118.800781 -109.910156 L 118.800781 30.441406 L -15.355469 30.441406 L -15.355469 -332.15625 L 134.046875 -332.15625 C 153.152344 -332.15625 170.640625 -327.417969 186.511719 -317.9375 C 202.054688 -308.652344 214.378906 -296.222656 223.476562 -280.65625 C 232.714844 -264.847656 237.332031 -247.445312 237.332031 -228.441406 L 237.332031 -182.753906 C 237.332031 -168.164062 234.46875 -154.328125 228.746094 -141.242188 C 223.011719 -128.136719 214.984375 -116.835938 204.65625 -107.335938 L 184.046875 -129.738281 L 212.027344 -141.730469 L 285.816406 30.441406 L 144.84375 30.441406 Z M 193.152344 -11.777344 L 165.082031 0 L 165.082031 -30.441406 L 239.648438 -30.441406 L 239.648438 0 L 211.667969 11.992188 L 147.578125 -137.550781 L 163.4375 -152.140625 C 167.480469 -155.859375 170.65625 -160.363281 172.96875 -165.644531 C 175.289062 -170.953125 176.449219 -176.65625 176.449219 -182.753906 L 176.449219 -228.441406 C 176.449219 -236.453125 174.605469 -243.617188 170.910156 -249.9375 C 167.078125 -256.492188 161.871094 -261.738281 155.289062 -265.671875 C 149.035156 -269.40625 141.953125 -271.277344 134.046875 -271.277344 L 15.085938 -271.277344 L 15.085938 -301.71875 L 45.527344 -301.71875 L 45.527344 0 L 15.085938 0 L 15.085938 -30.441406 L 88.359375 -30.441406 L 88.359375 0 L 57.917969 0 L 57.917969 -140.351562 L 139.203125 -140.351562 Z M 118.800781 -228.441406 L 118.800781 -182.753906 L 88.359375 -182.753906 L 88.359375 -213.195312 L 134.046875 -213.195312 L 134.046875 -182.753906 L 103.605469 -182.753906 L 103.605469 -228.441406 L 134.046875 -228.441406 L 134.046875 -198 L 88.359375 -198 L 88.359375 -228.441406 Z M 57.917969 -258.882812 L 164.488281 -258.882812 L 164.488281 -152.3125 L 57.917969 -152.3125 Z M 57.917969 -258.882812 "/></g></g></g><g fill="#ffffff" fill-opacity="1"><g transform="translate(2086.311334, 334.48104)"><g><path d="M 84.480469 -332.15625 L 251.988281 -332.15625 L 251.988281 -175.15625 L 117.832031 -175.15625 L 117.832031 -228.441406 L 148.273438 -228.441406 L 148.273438 -198 L 84.480469 -198 L 84.480469 -228.441406 L 114.921875 -228.441406 L 114.921875 -182.753906 L 84.480469 -182.753906 L 84.480469 -213.195312 L 251.988281 -213.195312 L 251.988281 -73.273438 C 251.988281 -54.167969 247.246094 -36.679688 237.765625 -20.808594 C 228.535156 -5.355469 216.191406 6.988281 200.738281 16.21875 C 184.867188 25.699219 167.378906 30.441406 148.273438 30.441406 L -19.234375 30.441406 L -19.234375 -121.816406 L 114.921875 -121.816406 L 114.921875 -73.273438 L 84.480469 -73.273438 L 84.480469 -103.714844 L 148.273438 -103.714844 L 148.273438 -73.273438 L 117.832031 -73.273438 L 117.832031 -109.910156 L 148.273438 -109.910156 L 148.273438 -79.46875 L 84.480469 -79.46875 C 65.480469 -79.46875 48.074219 -84.089844 32.269531 -93.328125 C 16.699219 -102.425781 4.273438 -114.746094 -5.011719 -130.289062 C -14.492188 -146.160156 -19.234375 -163.648438 -19.234375 -182.753906 L -19.234375 -228.441406 C -19.234375 -247.546875 -14.492188 -265.035156 -5.011719 -280.90625 C 4.21875 -296.359375 16.5625 -308.703125 32.015625 -317.9375 C 47.886719 -327.417969 65.375 -332.15625 84.480469 -332.15625 Z M 84.480469 -271.277344 C 76.574219 -271.277344 69.496094 -269.40625 63.238281 -265.671875 C 56.566406 -261.683594 51.238281 -256.355469 47.253906 -249.683594 C 43.515625 -243.429688 41.648438 -236.347656 41.648438 -228.441406 L 41.648438 -182.753906 C 41.648438 -174.847656 43.515625 -167.769531 47.253906 -161.511719 C 51.1875 -154.929688 56.429688 -149.722656 62.988281 -145.890625 C 69.304688 -142.199219 76.46875 -140.351562 84.480469 -140.351562 L 178.714844 -140.351562 L 178.714844 -42.832031 L 54.039062 -42.832031 L 54.039062 -91.378906 L 84.480469 -91.378906 L 84.480469 -60.9375 L 11.207031 -60.9375 L 11.207031 -91.378906 L 41.648438 -91.378906 L 41.648438 0 L 11.207031 0 L 11.207031 -30.441406 L 148.273438 -30.441406 C 156.175781 -30.441406 163.257812 -32.308594 169.511719 -36.046875 C 176.183594 -40.03125 181.515625 -45.363281 185.5 -52.035156 C 189.238281 -58.289062 191.105469 -65.367188 191.105469 -73.273438 L 191.105469 -182.753906 L 221.546875 -182.753906 L 221.546875 -152.3125 L 54.039062 -152.3125 L 54.039062 -258.882812 L 178.714844 -258.882812 L 178.714844 -205.597656 L 148.273438 -205.597656 L 148.273438 -236.039062 L 221.546875 -236.039062 L 221.546875 -205.597656 L 191.105469 -205.597656 L 191.105469 -301.71875 L 221.546875 -301.71875 L 221.546875 -271.277344 Z M 84.480469 -271.277344 "/></g></g></g><g fill="#ffca22" fill-opacity="1"><g transform="translate(18.692154, 334.48104)"><g><path d="M 165.078125 0 L 118.96875 -109.90625 L 88.359375 -109.90625 L 88.359375 0 L 15.09375 0 L 15.09375 -301.71875 L 134.046875 -301.71875 C 147.554688 -301.71875 159.84375 -298.410156 170.90625 -291.796875 C 181.96875 -285.191406 190.726562 -276.359375 197.1875 -265.296875 C 203.65625 -254.234375 206.890625 -241.953125 206.890625 -228.453125 L 206.890625 -182.75 C 206.890625 -172.40625 204.878906 -162.632812 200.859375 -153.4375 C 196.835938 -144.25 191.234375 -136.347656 184.046875 -129.734375 L 239.65625 0 Z M 88.359375 -228.453125 L 88.359375 -182.75 L 134.046875 -182.75 L 134.046875 -228.453125 Z M 88.359375 -228.453125 "/></g></g></g><g fill="#ffca22" fill-opacity="1"><g transform="translate(248.427547, 334.48104)"><g><path d="M 148.703125 -301.71875 C 162.210938 -301.71875 174.5 -298.410156 185.5625 -291.796875 C 196.625 -285.191406 205.457031 -276.359375 212.0625 -265.296875 C 218.675781 -254.234375 221.984375 -241.953125 221.984375 -228.453125 L 221.984375 -73.28125 C 221.984375 -59.769531 218.675781 -47.484375 212.0625 -36.421875 C 205.457031 -25.359375 196.625 -16.519531 185.5625 -9.90625 C 174.5 -3.300781 162.210938 0 148.703125 0 L 84.90625 0 C 71.40625 0 59.125 -3.300781 48.0625 -9.90625 C 37 -16.519531 28.160156 -25.359375 21.546875 -36.421875 C 14.941406 -47.484375 11.640625 -59.769531 11.640625 -73.28125 L 11.640625 -228.453125 C 11.640625 -241.953125 14.941406 -254.234375 21.546875 -265.296875 C 28.160156 -276.359375 37 -285.191406 48.0625 -291.796875 C 59.125 -298.410156 71.40625 -301.71875 84.90625 -301.71875 Z M 84.90625 -73.28125 L 148.703125 -73.28125 L 148.703125 -228.453125 L 84.90625 -228.453125 Z M 84.90625 -73.28125 "/></g></g></g><g fill="#ffca22" fill-opacity="1"><g transform="translate(482.042262, 334.48104)"><g><path d="M 201.296875 -163.796875 C 208.765625 -157.179688 214.648438 -149.203125 218.953125 -139.859375 C 223.265625 -130.523438 225.421875 -120.539062 225.421875 -109.90625 L 225.421875 -73.28125 C 225.421875 -59.769531 222.117188 -47.484375 215.515625 -36.421875 C 208.910156 -25.359375 200.070312 -16.519531 189 -9.90625 C 177.9375 -3.300781 165.65625 0 152.15625 0 L 15.09375 0 L 15.09375 -301.71875 L 134.046875 -301.71875 C 147.554688 -301.71875 159.84375 -298.410156 170.90625 -291.796875 C 181.96875 -285.191406 190.726562 -276.359375 197.1875 -265.296875 C 203.65625 -254.234375 206.890625 -241.953125 206.890625 -228.453125 L 206.890625 -191.8125 C 206.890625 -182.039062 205.023438 -172.703125 201.296875 -163.796875 Z M 88.359375 -228.453125 L 88.359375 -182.75 L 134.046875 -182.75 L 134.046875 -228.453125 Z M 88.359375 -73.28125 L 152.15625 -73.28125 L 152.15625 -109.90625 L 88.359375 -109.90625 Z M 88.359375 -73.28125 "/></g></g></g><g fill="#ffca22" fill-opacity="1"><g transform="translate(713.932859, 334.48104)"><g><path d="M 148.703125 -301.71875 C 162.210938 -301.71875 174.5 -298.410156 185.5625 -291.796875 C 196.625 -285.191406 205.457031 -276.359375 212.0625 -265.296875 C 218.675781 -254.234375 221.984375 -241.953125 221.984375 -228.453125 L 221.984375 -73.28125 C 221.984375 -59.769531 218.675781 -47.484375 212.0625 -36.421875 C 205.457031 -25.359375 196.625 -16.519531 185.5625 -9.90625 C 174.5 -3.300781 162.210938 0 148.703125 0 L 84.90625 0 C 71.40625 0 59.125 -3.300781 48.0625 -9.90625 C 37 -16.519531 28.160156 -25.359375 21.546875 -36.421875 C 14.941406 -47.484375 11.640625 -59.769531 11.640625 -73.28125 L 11.640625 -228.453125 C 11.640625 -241.953125 14.941406 -254.234375 21.546875 -265.296875 C 28.160156 -276.359375 37 -285.191406 48.0625 -291.796875 C 59.125 -298.410156 71.40625 -301.71875 84.90625 -301.71875 Z M 84.90625 -73.28125 L 148.703125 -73.28125 L 148.703125 -228.453125 L 84.90625 -228.453125 Z M 84.90625 -73.28125 "/></g></g></g><g fill="#ffca22" fill-opacity="1"><g transform="translate(947.547553, 334.48104)"><g><path d="M 193.109375 -228.453125 L 84.90625 -228.453125 L 84.90625 -73.28125 L 193.109375 -73.28125 L 193.109375 0 L 84.90625 0 C 71.40625 0 59.125 -3.300781 48.0625 -9.90625 C 37 -16.519531 28.160156 -25.359375 21.546875 -36.421875 C 14.941406 -47.484375 11.640625 -59.769531 11.640625 -73.28125 L 11.640625 -228.453125 C 11.640625 -241.953125 14.941406 -254.234375 21.546875 -265.296875 C 28.160156 -276.359375 37 -285.191406 48.0625 -291.796875 C 59.125 -298.410156 71.40625 -301.71875 84.90625 -301.71875 L 193.109375 -301.71875 Z M 193.109375 -228.453125 "/></g></g></g><g fill="#ffca22" fill-opacity="1"><g transform="translate(1146.680346, 334.48104)"><g><path d="M 148.703125 -301.71875 C 162.210938 -301.71875 174.5 -298.410156 185.5625 -291.796875 C 196.625 -285.191406 205.457031 -276.359375 212.0625 -265.296875 C 218.675781 -254.234375 221.984375 -241.953125 221.984375 -228.453125 L 221.984375 -73.28125 C 221.984375 -59.769531 218.675781 -47.484375 212.0625 -36.421875 C 205.457031 -25.359375 196.625 -16.519531 185.5625 -9.90625 C 174.5 -3.300781 162.210938 0 148.703125 0 L 84.90625 0 C 71.40625 0 59.125 -3.300781 48.0625 -9.90625 C 37 -16.519531 28.160156 -25.359375 21.546875 -36.421875 C 14.941406 -47.484375 11.640625 -59.769531 11.640625 -73.28125 L 11.640625 -228.453125 C 11.640625 -241.953125 14.941406 -254.234375 21.546875 -265.296875 C 28.160156 -276.359375 37 -285.191406 48.0625 -291.796875 C 59.125 -298.410156 71.40625 -301.71875 84.90625 -301.71875 Z M 84.90625 -73.28125 L 148.703125 -73.28125 L 148.703125 -228.453125 L 84.90625 -228.453125 Z M 84.90625 -73.28125 "/></g></g></g><g fill="#ffca22" fill-opacity="1"><g transform="translate(1380.295082, 334.48104)"><g><path d="M 152.15625 -301.71875 C 165.65625 -301.71875 177.9375 -298.410156 189 -291.796875 C 200.070312 -285.191406 208.910156 -276.359375 215.515625 -265.296875 C 222.117188 -254.234375 225.421875 -241.953125 225.421875 -228.453125 L 225.421875 -73.28125 C 225.421875 -59.769531 222.117188 -47.484375 215.515625 -36.421875 C 208.910156 -25.359375 200.070312 -16.519531 189 -9.90625 C 177.9375 -3.300781 165.65625 0 152.15625 0 L 15.09375 0 L 15.09375 -301.71875 Z M 88.359375 -73.28125 L 152.15625 -73.28125 L 152.15625 -228.453125 L 88.359375 -228.453125 Z M 88.359375 -73.28125 "/></g></g></g><g fill="#ffca22" fill-opacity="1"><g transform="translate(1617.357842, 334.48104)"><g><path d="M 181.03125 -228.453125 L 88.359375 -228.453125 L 88.359375 -182.75 L 161.203125 -182.75 L 161.203125 -109.90625 L 88.359375 -109.90625 L 88.359375 -73.28125 L 225.421875 -73.28125 L 225.421875 0 L 15.09375 0 L 15.09375 -301.71875 L 225.421875 -301.71875 L 225.421875 -272.84375 C 225.421875 -260.769531 221.109375 -250.351562 212.484375 -241.59375 C 203.867188 -232.832031 193.382812 -228.453125 181.03125 -228.453125 Z M 181.03125 -228.453125 "/></g></g></g><g fill="#ffca22" fill-opacity="1"><g transform="translate(1847.524385, 334.48104)"><g><path d="M 165.078125 0 L 118.96875 -109.90625 L 88.359375 -109.90625 L 88.359375 0 L 15.09375 0 L 15.09375 -301.71875 L 134.046875 -301.71875 C 147.554688 -301.71875 159.84375 -298.410156 170.90625 -291.796875 C 181.96875 -285.191406 190.726562 -276.359375 197.1875 -265.296875 C 203.65625 -254.234375 206.890625 -241.953125 206.890625 -228.453125 L 206.890625 -182.75 C 206.890625 -172.40625 204.878906 -162.632812 200.859375 -153.4375 C 196.835938 -144.25 191.234375 -136.347656 184.046875 -129.734375 L 239.65625 0 Z M 88.359375 -228.453125 L 88.359375 -182.75 L 134.046875 -182.75 L 134.046875 -228.453125 Z M 88.359375 -228.453125 "/></g></g></g><g fill="#ffca22" fill-opacity="1"><g transform="translate(2086.311334, 334.48104)"><g><path d="M 84.484375 -301.71875 L 221.546875 -301.71875 L 221.546875 -205.609375 L 148.28125 -205.609375 L 148.28125 -228.453125 L 84.484375 -228.453125 L 84.484375 -182.75 L 221.546875 -182.75 L 221.546875 -73.28125 C 221.546875 -59.769531 218.238281 -47.484375 211.625 -36.421875 C 205.019531 -25.359375 196.1875 -16.519531 185.125 -9.90625 C 174.0625 -3.300781 161.78125 0 148.28125 0 L 11.203125 0 L 11.203125 -91.375 L 84.484375 -91.375 L 84.484375 -73.28125 L 148.28125 -73.28125 L 148.28125 -109.90625 L 84.484375 -109.90625 C 70.972656 -109.90625 58.6875 -113.140625 47.625 -119.609375 C 36.5625 -126.078125 27.722656 -134.84375 21.109375 -145.90625 C 14.503906 -156.96875 11.203125 -169.25 11.203125 -182.75 L 11.203125 -228.453125 C 11.203125 -241.953125 14.503906 -254.234375 21.109375 -265.296875 C 27.722656 -276.359375 36.5625 -285.191406 47.625 -291.796875 C 58.6875 -298.410156 70.972656 -301.71875 84.484375 -301.71875 Z M 84.484375 -301.71875 "/></g></g></g></g></g></svg>